<svg width="400" height="250" viewBox="0 0 400 250" fill="none" xmlns="http://www.w3.org/2000/svg">
<rect width="400" height="250" rx="8" fill="#373C44"/>
<path d="M159.188 102.062L145.375 171H130.5L121.188 124.75H120.562L111.25 171H96.375L82.5625 102.062H98.875L104.188 150.562H106.375L113.812 102.312H127.938L135.375 150.562H137.562L142.812 102.062H159.188ZM232.438 193.125H167.562V177.875H232.438V193.125ZM317.438 102.062L303.625 171H288.75L279.438 124.75H278.812L269.5 171H254.625L240.812 102.062H257.125L262.438 150.562H264.625L272.062 102.312H286.188L293.625 150.562H295.812L301.062 102.062H317.438Z" fill="white"/>
</svg>
